<?xml version="1.0" standalone="no"?>
<!DOCTYPE svg PUBLIC "-//W3C//DTD SVG 20010904//EN"
 "http://www.w3.org/TR/2001/REC-SVG-20010904/DTD/svg10.dtd">
<svg version="1.0" xmlns="http://www.w3.org/2000/svg"
 width="764.000000pt" height="636.000000pt" viewBox="0 0 764.000000 636.000000"
 preserveAspectRatio="xMidYMid meet">

<g transform="translate(0.000000,636.000000) scale(0.100000,-0.100000)" stroke="none">
<path d="M3940 6130 c-389 -53 -723 -282 -979 -669 -60 -92 -84 -142 -146
-308 -77 -203 -99 -326 -99 -558 -1 -216 16 -328 79 -520 43 -131 122 -302
178 -385 55 -80 179 -232 231 -283 132 -127 378 -287 519 -337 70 -25 104 -46
93 -57 -16 -17 -284 -21 -466 -7 -285 20 -495 70 -760 179 -244 101 -511 275
-733 478 -70 64 -92 79 -132 86 -53 10 -72 7 -132 -20 -84 -37 -121 -166 -74
-257 42 -81 295 -302 536 -469 625 -431 1336 -653 2100 -654 266 -1 469 21
713 77 106 24 158 26 136 4 -21 -21 -314 -159 -491 -230 -305 -124 -663 -215
-1025 -261 -233 -30 -691 -33 -903 -6 -690 87 -1258 293 -1795 650 -109 73
-288 207 -351 262 -53 47 -95 59 -166 46 -65 -12 -97 -32 -130 -81 -19 -27
-23 -47 -23 -104 0 -69 2 -73 45 -131 25 -33 109 -127 187 -209 373 -391 801
-712 1298 -973 266 -140 681 -300 1015 -391 224 -61 584 -122 843 -142 74 -5
138 -12 143 -15 15 -10 10 -23 -13 -31 -36 -11 -118 -95 -146 -149 -34 -68
-42 -189 -17 -266 33 -101 101 -175 202 -222 39 -18 65 -22 143 -21 120 1 184
27 255 106 152 168 137 395 -33 520 -69 51 -66 53 118 62 124 6 404 30 475 41
769 118 1399 352 2010 747 249 161 487 346 696 542 158 149 179 179 179 259 0
64 -14 98 -57 139 -30 28 -100 58 -137 58 -42 -1 -103 -39 -192 -121 -310
-288 -626 -525 -903 -677 -248 -136 -274 -149 -382 -195 -57 -25 -131 -57
-164 -72 -102 -46 -235 -93 -395 -140 -25 -7 -83 -25 -130 -40 -175 -54 -493
-112 -780 -140 -196 -20 -670 -20 -860 -1 -304 32 -557 76 -755 132 -286 82
-497 152 -594 197 -62 29 -64 31 -36 35 17 1 89 -9 159 -23 354 -70 836 -81
1286 -29 291 33 756 149 1001 250 63 25 148 60 189 76 165 65 447 217 645 346
283 185 473 340 720 587 177 176 308 324 340 385 28 54 22 136 -15 191 -31 48
-76 75 -140 85 -50 8 -101 -16 -240 -115 -423 -301 -846 -483 -1338 -576 -156
-29 -303 -43 -287 -27 6 5 64 30 130 55 177 67 235 95 395 194 303 186 604
448 640 558 15 46 -1 127 -35 171 -30 39 -99 74 -146 74 -56 -1 -114 -34 -206
-122 -185 -174 -392 -286 -617 -332 -106 -22 -311 -31 -416 -18 -104 13 -302
72 -390 115 -103 51 -239 146 -321 225 -359 341 -486 861 -323 1314 76 210
149 323 309 483 154 154 241 205 433 257 59 15 108 20 207 20 200 1 311 -36
469 -154 215 -161 323 -463 257 -719 -56 -217 -244 -375 -482 -404 -169 -21
-348 89 -415 255 -36 89 -38 210 -5 264 13 20 29 36 36 36 7 0 25 -25 39 -56
68 -148 184 -213 359 -202 132 9 230 78 290 205 26 57 31 79 31 147 1 72 -3
89 -31 146 -60 123 -139 189 -293 244 -57 21 -89 26 -164 26 -132 0 -198 -15
-306 -68 -76 -37 -110 -61 -170 -122 -136 -137 -190 -260 -198 -451 -5 -140
18 -250 79 -372 55 -110 87 -154 172 -234 154 -143 354 -212 582 -200 142 7
234 31 360 92 200 97 376 283 454 482 50 127 64 211 64 368 0 135 -4 162 -31
267 -39 147 -67 215 -124 303 -166 258 -397 432 -667 502 -78 20 -126 25 -256
28 -88 2 -189 0 -225 -5z"/>
</g>
</svg>
